<svg width="307" height="222" viewBox="0 0 307 222" fill="none" xmlns="http://www.w3.org/2000/svg">
<path opacity="0.9" d="M45.2857 2.70264H2V45.9686H45.2857V2.70264Z" stroke="#ABE85E" stroke-width="4" stroke-miterlimit="2" stroke-linecap="round"/>
<path opacity="0.9" d="M131.857 2.70264H45.2859V45.9686H131.857V2.70264Z" stroke="#ABE85E" stroke-width="4" stroke-miterlimit="2" stroke-linecap="round"/>
<path opacity="0.9" d="M45.2859 89.2346H2.00018V132.501H45.2859V89.2346Z" stroke="#ABE85E" stroke-width="4" stroke-miterlimit="2" stroke-linecap="round"/>
<path opacity="0.9" d="M131.857 89.2346H45.2859V132.501H131.857V89.2346Z" stroke="#ABE85E" stroke-width="4" stroke-miterlimit="2" stroke-linecap="round"/>
<path opacity="0.9" d="M218.428 89.2346H131.857V132.501H218.428V89.2346Z" stroke="#ABE85E" stroke-width="4" stroke-miterlimit="2" stroke-linecap="round"/>
<path opacity="0.9" d="M45.2859 175.766H2.00018V219.032H45.2859V175.766Z" stroke="#ABE85E" stroke-width="4" stroke-miterlimit="2" stroke-linecap="round"/>
<path opacity="0.9" d="M131.857 175.766H45.2859V219.032H131.857V175.766Z" stroke="#ABE85E" stroke-width="4" stroke-miterlimit="2" stroke-linecap="round"/>
<path opacity="0.9" d="M218.428 175.766H131.857V219.032H218.428V175.766Z" stroke="#ABE85E" stroke-width="4" stroke-miterlimit="2" stroke-linecap="round"/>
<path opacity="0.9" d="M305 175.766H218.429V219.032H305V175.766Z" stroke="#ABE85E" stroke-width="4" stroke-miterlimit="2" stroke-linecap="round"/>
<path opacity="0.9" d="M88.5715 132.5H2.00018V175.766H88.5715V132.5Z" stroke="#ABE85E" stroke-width="4" stroke-miterlimit="2" stroke-linecap="round"/>
<path opacity="0.9" d="M175.143 132.5H88.5713V175.766H175.143V132.5Z" stroke="#ABE85E" stroke-width="4" stroke-miterlimit="2" stroke-linecap="round"/>
<path opacity="0.9" d="M261.714 132.5H175.143V175.766H261.714V132.5Z" stroke="#ABE85E" stroke-width="4" stroke-miterlimit="2" stroke-linecap="round"/>
<path opacity="0.9" d="M88.5715 45.9685H2.00018V89.2344H88.5715V45.9685Z" stroke="#ABE85E" stroke-width="4" stroke-miterlimit="2" stroke-linecap="round"/>
<path opacity="0.9" d="M175.143 45.9685H88.5715V89.2344H175.143V45.9685Z" stroke="#ABE85E" stroke-width="4" stroke-miterlimit="2" stroke-linecap="round"/>
</svg>
