<?xml version="1.0" encoding="UTF-8"?>
<svg id="Layer_1" data-name="Layer 1" xmlns="http://www.w3.org/2000/svg" xmlns:xlink="http://www.w3.org/1999/xlink" viewBox="0 0 434.25 459.29">
    <defs>
        <style>
            .cls-1 {
            fill: #fff;
            }

            .cls-2 {
            clip-path: url(#clippath-2);
            }

            .cls-3 {
            fill: #19669b;
            }

            .cls-3, .cls-4, .cls-5, .cls-6 {
            stroke-miterlimit: 10;
            stroke-width: 1.74px;
            }

            .cls-3, .cls-5, .cls-6 {
            stroke: #231f20;
            }

            .cls-7 {
            clip-path: url(#clippath-1);
            }

            .cls-8 {
            clip-path: url(#clippath);
            }

            .cls-9, .cls-4 {
            fill: none;
            }

            .cls-4 {
            stroke: #fff;
            }

            .cls-5 {
            fill: #939598;
            }

            .cls-6 {
            fill: #71993f;
            }
        </style>
        <clipPath id="clippath">
            <path class="cls-9" d="M211.97,42.35C118.1,43.82,40.75,113.32,27.06,203.71H211.97V42.35Z"/>
        </clipPath>
        <clipPath id="clippath-1">
            <path class="cls-9" d="M37.06,299.41c27.09,71.94,96.54,123.12,177.96,123.12s150.87-51.18,177.96-123.12H37.06Z"/>
        </clipPath>
        <clipPath id="clippath-2">
            <path class="cls-9" d="M218.06,203.71h184.91c-13.69-90.4-91.04-159.89-184.91-161.37V203.71Z"/>
        </clipPath>
    </defs>
    <path class="cls-1" d="M72.12,230l-5.56-1.44h-9.78l-1.44,1.44v58.67l1.65,4.94h-16.37l1.65-4.94v-58.67l-1.54-1.44h-9.98l-5.35,1.44,2.37-14.62h41.89l2.47,14.62Z"/>
    <path class="cls-1" d="M77.37,215.38h16.16l-1.65,5.04v25.63l1.54,1.54h9.98l1.54-1.54v-25.63l-1.54-5.04h16.37l-1.65,5.04v68.25l1.65,4.94h-16.37l1.54-4.94v-26.46l-1.54-1.54h-9.98l-1.54,1.54v26.46l1.65,4.94h-16.16l1.65-4.94v-68.25l-1.65-5.04Z"/>
    <path class="cls-1" d="M174.75,293.61l1.65-4.94v-68.25l-1.65-5.04h34.17l6.59,6.38v35.61l-6.59,6.59,5.66,24.4,2.06,5.25h-16.16l1.13-4.84-5.56-23.57-1.03-1.23h-4.22l-1.54,1.54v23.16l1.65,4.94h-16.16Zm26.15-42.62l1.54-1.44v-19.56l-1.54-1.44h-10.09l-1.54,1.44v19.56l1.54,1.44h10.09Z"/>
    <path class="cls-1" d="M240.52,293.61h-16.16l1.65-4.94v-68.25l-1.65-5.04h16.16l-1.65,5.04v68.25l1.65,4.94Z"/>
    <path class="cls-1" d="M248.55,293.61l1.65-5.04v-68.25l-1.65-4.94h39.12l2.37,14.41-5.35-1.54h-20.07l-1.54,1.54v16.16l1.54,1.54h6.59l5.04-1.65v16.37l-5.04-1.65h-6.59l-1.54,1.44v16.88l1.54,1.54h20.07l5.35-1.54-2.37,14.72h-39.12Z"/>
    <path class="cls-1" d="M126.47,293.61l1.65-5.04v-68.25l-1.65-4.94h39.12l2.37,14.41-5.35-1.54h-20.07l-1.54,1.54v16.16l1.54,1.54h6.59l5.04-1.65v16.37l-5.04-1.65h-6.59l-1.54,1.44v16.88l1.54,1.54h20.07l5.35-1.54-2.37,14.72h-39.12Z"/>
    <g>
        <path class="cls-1" d="M393,285.42v8.46l-2.59-.86h-35.72l-2.64,.86v-8.46l2.64,.86h35.72l2.59-.86Z"/>
        <path class="cls-1" d="M393,272.75v8.46l-2.59-.86h-35.72l-2.64,.86v-7.6l24.95-9.91h-22.31l-2.64,.86v-8.57l2.64,.86h35.72l2.59-.86v7.7l-24.89,9.91h22.31l2.59-.86Z"/>
        <path class="cls-1" d="M389.6,251.36h-34.21l-3.34-3.45v-13.63l3.34-3.4h6.9l2.59-.86v8.57l-2.59-.92h-2.69l-.81,.75v5.33l.81,.81h25.7l.81-.81v-5.33l-.81-.75h-2.64l-2.59,.92v-8.57l2.59,.86h6.95l3.39,3.4v13.63l-3.39,3.45Z"/>
        <path class="cls-1" d="M383.52,219.03l2.37-2.37h4.74l2.37,2.37v4.74l-2.37,2.37h-4.74l-2.37-2.37v-4.74Z"/>
    </g>
    <g>
        <path class="cls-1" d="M32.9,136.37l-1.99,3.76-.95-.99-15.88-8.39-1.38-.24,4.2-7.95,2.29-.75,8.31,4.39,.72,2.34-2.23,4.22,.17,.55,5.37,2.83,1.35,.22Zm-9.93-5.22l1.23-2.32-.15-.54-4.55-2.4-.52,.18-1.23,2.32,.15,.54,4.55,2.41,.52-.18Z"/>
        <path class="cls-1" d="M44,117.45l-2.28,3.66-.53-.68-3.07-1.02-.56,.13-1.79,2.88,.13,.56,2.27,2.3,.85,.18-2.28,3.66-.82-1.3-13.08-13.11-1.21-.31,2.48-3.98,.81,.95,17.54,5.92,1.53,.15Zm-10.8,2.54l1.06-1.7-.08-.43-6.3-2.35,4.89,4.6,.43-.12Z"/>
        <path class="cls-1" d="M47.63,110.16l1.28,.45-2.44,3.42-.81-1.11-4.79-3.42-12.13-3.5-1.82-.07,2.95-4.12,.38,.87,7.49,2.53-4.81-6.27-.95-.08,2.95-4.12,.65,1.7,7.25,10.32,4.79,3.42Z"/>
        <path class="cls-1" d="M49.45,87.3l-2.75,3.31-.74-1.14-1.04-.87-.55,.07-1.68,2.02,.03,.55,3.33,2.77,.57-.05,3.05-3.67,2.4-.22,6.61,5.49,.22,2.4-4.38,5.27-2.46,.28-2.67-2.22-1.24-.54,2.74-3.29,.72,1.16,1.04,.87,.55-.07,1.68-2.02-.03-.55-3.33-2.77-.57,.05-3.01,3.63-2.48,.27-6.63-5.51-.15-2.45,4.38-5.27,2.38-.24,2.71,2.25,1.3,.48Z"/>
        <path class="cls-1" d="M71.28,84.68l-2.99,3.11-.38-.78-2.79-1.63h-.58s-2.35,2.46-2.35,2.46v.57s1.75,2.73,1.75,2.73l.79,.35-2.99,3.11-.53-1.45-10.07-15.53-1.12-.55,3.25-3.38,.6,1.1,15.93,9.44,1.47,.47Zm-11.09,.24l1.39-1.45v-.44s-5.66-3.6-5.66-3.6l3.83,5.52,.44-.03Z"/>
        <path class="cls-1" d="M72.16,81.54l-11.5-12.8,.17-2.41,5.1-4.58,2.39,.11,2.32,2.58,1.19,.68-3.2,2.88-.53-1.28-.91-1.01-.55-.05-1.98,1.78v.56s8.63,9.61,8.63,9.61l.55,.05,1.98-1.78v-.56s-2.47-2.76-2.47-2.76l-.73,.65-2.88-2.07,4.15-3.73,.58,1.3,5.34,5.95-.13,2.41-5.1,4.58-2.43-.11Z"/>
        <path class="cls-1" d="M84.25,73.16l-.47-1.31-11.04-14.19-1.14-.76,8.13-6.33,2.82,2.61-1.36,.55-4.17,3.25-.07,.57,2.62,3.36,.57,.07,1.37-1.07,.78-1.16,2.65,3.4-1.31,.47-1.37,1.07-.09,.55,2.73,3.51,.57,.07,4.17-3.25,.86-1.19,1.89,3.44-8.13,6.33Z"/>
        <path class="cls-1" d="M99.62,54.72l-1.82,1.19-6.48-4.41,6.48,9.92,1.08,.85-3.56,2.33-.35-1.33-9.83-15.04-1.09-.87,3.2-2.09,8.53,5.57-1.68-10.05,3.2-2.09,.36,1.35,9.83,15.04,1.08,.85-3.56,2.33-.35-1.33-6.48-9.92,1.44,7.7Z"/>
        <path class="cls-1" d="M111.86,54.1l-.25-1.37-8.55-15.79-1-.94,9.05-4.9,2.35,3.04-1.43,.31-4.65,2.52-.16,.55,2.03,3.74,.55,.16,1.52-.83,.96-1.01,2.05,3.79-1.37,.25-1.52,.83-.18,.53,2.12,3.91,.55,.16,4.65-2.52,1.05-1.03,1.3,3.7-9.05,4.9Z"/>
        <path class="cls-1" d="M128.13,45.76l-3.88,1.74-.14-1.36-7.35-16.4-.94-1.03,3.49-1.56,9.68,9.41-4.59-10.24-.94-1.03,3.93-1.76,.15,1.39,7.35,16.4,.93,1.01-3.54,1.58-9.67-9.39,4.59,10.24,.93,1.01Z"/>
        <path class="cls-1" d="M144.62,21.27l-1.51,.14-2.43,.87-.23,.48,5.2,14.55,.85,1.08-4.06,1.45-.03-1.37-5.2-14.55-.51-.22-2.48,.88-1.2,.83-.71-3.84,10.39-3.71,1.91,3.41Z"/>
    </g>
    <g>
        <path class="cls-1" d="M273.19,34.26l.81-1.14,5.29-17.17-.03-1.37,9.84,3.03-.52,3.81-1.23-.8-5.05-1.56-.51,.27-1.25,4.07,.27,.51,1.66,.51,1.4-.02-1.27,4.12-1.14-.8-1.66-.51-.5,.24-1.31,4.25,.27,.51,5.05,1.55,1.47,.03-1.74,3.52-9.84-3.03Z"/>
        <path class="cls-1" d="M297.39,41.28l.48,1.61-4.57-1.78,.76-.61-.08-5.47-3.76,3.98,.15,.96-4.57-1.78,1.44-.86,6.65-7.07-.14-9.65-.48-1.61,4.55,1.77-.69,.66,.07,5.35,3.67-3.9-.06-.95,4.55,1.77-1.44,.86-6.63,7.02,.12,9.7Z"/>
        <path class="cls-1" d="M301.51,42.65l7.39-15.54,2.29-.77,6.19,2.95,.82,2.25-1.49,3.13-.17,1.36-3.89-1.85,.97-.98,.58-1.22-.17-.53-2.42-1.15-.54,.19-5.55,11.68,.19,.54,2.42,1.15,.52-.2,.57-1.2,.14-1.37,3.89,1.85-.95,.99-1.5,3.16-2.28,.81-6.19-2.95-.83-2.29Z"/>
        <path class="cls-1" d="M387.02,114.84l-.84,.98-2.69-3.87,1.21-.44,12.13-12.93,1.2-1.79,2.43,3.49-.78,.25-9.18,9.39,12-5.34,.48-.69,2.46,3.54-2.09,.46-16.32,6.96Z"/>
        <path class="cls-1" d="M395.53,130.77l-2.23-3.69,.85-.17,2.3-2.27,.14-.56-1.75-2.9-.56-.14-3.08,.98-.54,.68-2.23-3.69,1.53-.14,17.61-5.7,.82-.94,2.42,4.01-1.22,.29-13.24,12.94-.83,1.3Zm2.64-10.78l1.04,1.72,.42,.12,4.95-4.54-6.32,2.27-.09,.43Z"/>
        <path class="cls-1" d="M416.08,134.04l-.34-1.47-1.19-2.29-.51-.16-13.71,7.12-.95,.98-1.99-3.82,1.35-.22,13.71-7.11,.15-.54-1.21-2.33-.99-1.08,3.7-1.22,5.08,9.79-3.12,2.35Z"/>
        <path class="cls-1" d="M404.25,148.54l-1.75-3.88,1.36-.14,16.39-7.37,1.03-.94,1.75,3.88-1.39,.15-16.39,7.37-1.01,.93Z"/>
        <path class="cls-1" d="M427.25,155.13l-16.08,6.16-2.21-.98-2.45-6.41,.97-2.23,16.08-6.16,2.19,1.02,2.45,6.4-.96,2.2Zm-3.06-2.98l-.93-2.43-.5-.24-12.08,4.63-.21,.52,.93,2.43,.5,.24,12.08-4.62,.21-.52Z"/>
        <path class="cls-1" d="M412.12,169.73l-1.21-4.08,1.37,.04,17.21-5.12,1.15-.79,1.09,3.66-10.6,8.35,10.75-3.2,1.15-.79,1.23,4.13-1.4-.04-17.21,5.12-1.12,.79-1.1-3.71,10.57-8.35-10.75,3.2-1.12,.79Z"/>
    </g>
    <g>
        <path class="cls-1" d="M134.27,423.8l8.43,3.14,1.04,2.18-6,16.13-2.22,1-8.43-3.14,.82-1.11,6.26-16.84,.1-1.35Zm-2.24,17.01l.24,.52,2.47,.92,.52-.24,4.5-12.12-.24-.52-2.46-.92-.52,.24-4.5,12.12Z"/>
        <path class="cls-1" d="M142.51,448.63l.79-1.15,5.06-17.24-.05-1.37,9.88,2.9-.47,3.82-1.24-.79-5.07-1.49-.5,.28-1.2,4.08,.28,.5,1.66,.49,1.4-.04-1.22,4.13-1.15-.79-1.67-.49-.5,.25-1.25,4.26,.28,.5,5.07,1.49h1.47s-1.69,3.55-1.69,3.55l-9.88-2.9Zm14.51-26.1l1.16,2.49-5.77,2.71-.88-.74,3.65-3.98,1.84-.48Z"/>
        <path class="cls-1" d="M161.81,453.82l-4.16-.9,.7-1.18,3.78-17.57-.14-1.39,3.74,.8,2.24,13.32,2.36-10.97-.14-1.39,4.21,.91-.7,1.21-3.78,17.56,.15,1.36-3.79-.81-2.24-13.29-2.36,10.97,.15,1.36Z"/>
        <path class="cls-1" d="M175.47,456.49l.61-1.26,2.44-17.8-.25-1.35,10.2,1.4,.1,3.84-1.34-.59-5.24-.72-.46,.35-.58,4.21,.35,.46,1.72,.24,1.37-.25-.59,4.27-1.26-.61-1.72-.24-.45,.32-.6,4.4,.35,.46,5.24,.72,1.45-.21-1.15,3.75-10.2-1.4Z"/>
        <path class="cls-1" d="M194.98,458.7l-4.24-.35,.54-1.26,1.47-17.92-.32-1.36,4.24,.35-.54,1.29-1.47,17.92,.33,1.33Z"/>
        <path class="cls-1" d="M200.41,457.37l.42-17.2,1.77-1.64,6.85,.17,1.67,1.72-.08,3.47,.4,1.31-4.31-.11,.49-1.29,.03-1.36-.37-.42-2.65-.07-.39,.4-.32,12.92,.37,.41,2.66,.07,.39-.4,.09-3.71-.97-.02-.67-3.49,5.58,.14-.47,1.34-.2,7.99-1.75,1.67-6.86-.17-1.69-1.75Z"/>
        <path class="cls-1" d="M216.52,459.27l.37-1.35-.84-17.95-.5-1.28,10.29-.48,.8,3.76-1.43-.34-5.28,.25-.39,.43,.2,4.25,.43,.39,1.73-.08,1.31-.5,.2,4.3-1.34-.37-1.73,.08-.39,.4,.21,4.44,.42,.39,5.28-.25,1.39-.47-.44,3.9-10.29,.48Z"/>
        <path class="cls-1" d="M240.57,451.39l-2.15,.28-3.91-6.79,1.52,11.74,.6,1.24-4.22,.55,.26-1.35-2.31-17.81-.6-1.26,3.79-.49,5.25,8.72,2.86-9.77,3.79-.49-.26,1.37,2.31,17.81,.6,1.24-4.22,.55,.26-1.35-1.52-11.74-2.05,7.56Z"/>
        <path class="cls-1" d="M253.63,455.3l.15-1.39-3.77-17.57-.7-1.18,10.07-2.16,1.4,3.58-1.46-.1-5.17,1.11-.31,.48,.89,4.16,.48,.31,1.7-.36,1.21-.7,.9,4.21-1.39-.15-1.7,.36-.32,.46,.93,4.35,.48,.31,5.17-1.11,1.29-.69,.2,3.92-10.07,2.16Z"/>
        <path class="cls-1" d="M273.09,450.63l-4.08,1.2,.05-1.37-5.06-17.24-.79-1.15,3.66-1.08,8.32,10.63-3.16-10.77-.79-1.15,4.13-1.21-.04,1.4,5.06,17.24,.78,1.13-3.72,1.09-8.31-10.61,3.16,10.77,.78,1.13Z"/>
        <path class="cls-1" d="M291.29,426.72l-1.5,.16-2.41,.91-.22,.49,5.45,14.45,.86,1.06-4.03,1.52-.05-1.37-5.45-14.45-.51-.21-2.46,.93-1.18,.85-.77-3.82,10.32-3.9,1.97,3.37Z"/>
    </g>
    <g class="cls-8">
        <path class="cls-6" d="M211.97,42.35C118.1,43.82,40.75,113.32,27.06,203.71H211.97V42.35Z"/>
        <path class="cls-1" d="M79.07,176.94c1.65,2.2,3.22,4.52,4.7,6.93,0-.25-.02-.5-.02-.74-.83-3.12-1.53-5.72-1.72-6.32-1.62-5.33-3.7-10.45-5.97-15.43-3.55-8.41-7.91-16.14-13.14-23.08-1.15-1.62-2.45-3.17-3.76-4.72,1.23,.74,2.45,1.52,3.63,2.36,5.7,4.04,9.88,9.62,14.23,15.52,.06,.08,.12,.12,.19,.15,.77,1.29,1.53,2.62,2.27,4-2.48-9.21-5.77-18.15-9.16-27.01,3.05,3.4,5.96,6.96,8.44,11.01,2.58,4.98,4.85,10.18,6.62,15.65,2.87,8.87,5.61,18.76,6.92,28.54,.71-5.09,1.32-10.2,1.81-15.31,1.05-7.44,1.86-14.96,2.07-22.51,.21-7.77,.21-15.96-1.18-23.59-.06-.34-.21-1.06-.41-2,.73,2.01,1.26,4.19,1.83,6.26,4.1,14.9,6.06,32.35,4.96,48.98,1.29-5.34,2.84-10.61,4.8-15.51,4.31-8.43,10.05-17.22,17.97-19.64-2.5,3.2-4.93,6.33-6.81,10.16-2.51,5.11-4.73,10.64-6.32,16.39-2.48,7.92-3.99,16.7-4.84,25.16,2.46-5.13,5.42-8.86,10.34-11.94,4.66-2.91,9.7-4.01,14.8-4.25-1.57,.82-3.1,1.78-4.59,3-3.95,3.24-7.36,7.26-10.31,11.79-3.01,4.61-5.65,9.49-8.14,14.53-.3,.6-.6,1.21-.89,1.82h-16.42c-2.97-11.18-9.46-21.19-15.91-29.56-1.87-2.43-3.82-4.78-5.83-7.04-2.91-3.54-6.08-6.71-9.46-9.5-1.91-1.72-3.84-3.54-5.83-5.23,9.53,4,18.71,12.58,25.13,21.15Z"/>
        <path class="cls-1" d="M65.53,194.59c.75-5.99,1.81-11.83,3.5-17.66,1.3-4.49,3.04-8.59,5.17-12.53,1.24-2.28,2.94-4.24,4.31-6.39-3.32,2.07-6.24,4.49-8.76,7.18-2.15,3.02-3.96,6.41-5.51,9.97-2.48,5.75-3.95,12.32-4.8,18.74-.06,.48-.13,1.04-.19,1.64-.45-8.22-1.51-15.63-4.19-23.63-1.19-2.79-2.61-5.51-4.2-8.18-1.42-2.4-3.09-4.49-5.45-6.34-1.37-1.07-3.16-2.54-5.14-3.08-.06,.11-.09,.23,0,.31,9.51,8.7,12.55,23.08,14.01,37.11-1.99-5.76-5.54-10.01-9.74-13.59-2.78-2.37-5.85-3.88-9.11-4.83-.98-.29-2.16-.67-3.32-.79,11.24,7.12,18.5,18.23,19.71,29.88,.04,.35-1.74-3.97-5.39-5.79-4.53-2.19-10.11-2.45-14.02-.66,6.12,.32,11.61,3.33,15.57,7.19,1.3,1.26,2.54,2.59,3.66,3.99h14.95c.19-1.56,.55-3.11,.88-4.49,.98-4.07,2.32-8.22,4.24-12.06,2.21-4.42,5.23-8.88,9.5-12.19,.91-.7,1.86-1.35,2.83-1.98-7.91,2.83-14.37,9.54-18.54,18.19Z"/>
        <path class="cls-1" d="M146.58,186.03c-3.55,3.64-5.28,12.27-5.25,11.57,1.18-23.27,8.25-45.46,19.21-59.69-1.13,.25-2.28,1.01-3.23,1.58-3.17,1.91-6.16,4.92-8.87,9.66-4.09,7.15-7.55,15.65-9.49,27.15,1.43-28.01,4.39-56.75,13.66-74.13,.08-.16,.06-.39,0-.62-1.92,1.08-3.67,4.02-5,6.15-2.31,3.68-3.93,7.88-5.32,12.67-1.55,5.34-2.94,10.77-4.09,16.34-2.61,15.98-3.64,30.78-4.08,47.21-.06-1.18-.12-2.3-.18-3.27-.82-12.83-2.26-25.95-4.68-37.43-1.5-7.13-3.27-13.89-5.36-19.92-2.45-5.38-5.3-10.21-8.53-14.34,1.33,4.3,2.99,8.21,4.2,12.77,2.09,7.87,3.78,16.06,5.04,25.03,1.64,11.64,2.67,23.3,3.4,35.28-4.06-17.28-10.36-30.68-18.07-36.33,.95,1.26,1.88,2.56,2.76,3.96,4.17,6.6,7.1,15.52,9.26,24.34,.26,1.07,.51,2.16,.75,3.25-3.99-7.87-9.73-13.96-17.31-16.84-.22-.08-.5,.08-.73,.33,.91,.49,1.8,1.02,2.65,1.81,1.76,1.64,3.38,3.52,4.82,5.64,3.05,4.5,5.8,9.52,8.08,14.76,3.3,7.59,5.66,15.72,7.16,24.18h14.12c1.09-2.82,2.31-5.5,3.59-8.04,3.87-7.71,9.22-13.73,15.18-14.37-3.82-3.57-9.25-3.06-13.67,1.32Z"/>
        <path class="cls-1" d="M201.54,188.57c1.02-9.41,2.46-18.58,4.74-27.73,1.76-7.05,4.12-13.49,7.03-19.68,1.68-3.58,4-6.65,5.85-10.03-4.51,3.24-8.47,7.05-11.89,11.27-2.92,4.74-5.38,10.06-7.47,15.66-3.37,9.02-5.37,19.34-6.51,29.42-.08,.76-.17,1.64-.26,2.57-.61-12.91-2.04-24.54-5.68-37.11-1.61-4.37-3.55-8.64-5.7-12.84-1.93-3.76-4.2-7.06-7.41-9.96-1.86-1.67-4.29-3.98-6.97-4.83-.09,.17-.13,.36,0,.48,12.91,13.66,17.03,36.25,19.02,58.27-2.7-9.05-7.53-15.72-13.22-21.34-3.77-3.72-7.94-6.09-12.36-7.59-1.33-.45-2.93-1.04-4.5-1.24,15.26,11.19,25.11,28.63,26.76,46.92,.05,.55-2.35-6.23-7.31-9.1-6.15-3.44-13.73-3.84-19.04-1.03,8.3,.5,15.75,5.24,21.14,11.3,1.76,1.98,3.45,4.08,4.96,6.27h20.3c.25-2.45,.74-4.88,1.2-7.05,1.33-6.39,3.15-12.91,5.76-18.94,3-6.94,7.09-13.94,12.9-19.13,1.23-1.1,2.52-2.12,3.84-3.11-10.74,4.44-19.51,14.98-25.17,28.56Z"/>
        <path class="cls-1" d="M180.16,185.63c-4.21,3.24-6.25,10.94-6.21,10.31,1.4-20.75,9.76-40.53,22.73-53.22-1.33,.22-2.7,.9-3.82,1.41-3.76,1.7-7.29,4.38-10.5,8.61-4.84,6.38-8.94,13.95-11.24,24.21,1.69-24.98,5.2-50.6,16.16-66.09,.1-.14,.07-.35-.01-.55-2.28,.97-4.34,3.58-5.92,5.48-2.73,3.29-4.65,7.02-6.29,11.29-1.83,4.76-3.47,9.61-4.84,14.57-3.09,14.25-4.31,27.45-4.83,42.09-.07-1.05-.14-2.05-.22-2.92-.98-11.44-2.67-23.14-5.53-33.37-1.78-6.36-3.87-12.38-6.35-17.76-2.9-4.8-6.26-9.11-10.1-12.79,1.57,3.84,3.54,7.32,4.96,11.38,2.47,7.02,4.47,14.32,5.97,22.32,1.94,10.38,3.17,20.78,4.03,31.45-4.81-15.4-12.26-27.35-21.39-32.39,1.12,1.12,2.22,2.28,3.26,3.53,4.93,5.88,8.4,13.83,10.96,21.7,.31,.96,.6,1.92,.89,2.9-4.72-7.01-11.52-12.45-20.48-15.01-.25-.07-.6,.07-.86,.3,1.07,.43,2.13,.9,3.14,1.61,2.09,1.47,4,3.14,5.71,5.03,3.61,4.01,6.86,8.49,9.56,13.16,3.91,6.77,6.71,14.02,8.47,21.56h16.71c1.29-2.51,2.74-4.9,4.25-7.17,4.58-6.88,10.91-12.25,17.96-12.81-4.51-3.19-10.95-2.74-16.17,1.17Z"/>
    </g>
    <path class="cls-4" d="M211.97,42.35C118.1,43.82,40.75,113.32,27.06,203.71H211.97V42.35Z"/>
    <g class="cls-7">
        <path class="cls-3" d="M37.06,299.41c27.09,71.94,96.54,123.12,177.96,123.12s150.87-51.18,177.96-123.12H37.06Z"/>
        <path class="cls-1" d="M314.06,361.22c-.93,0-1.85,.25-2.66,.72l-26,15.01-6.9,3.98,2.06-7.69,5.79-21.6c.76-2.84-.93-5.77-3.77-6.54-.46-.12-.92-.18-1.39-.18-2.41,0-4.52,1.63-5.15,3.96l-10.26,38.28-.35,1.32-1.18,.68-8.63,4.98-5.63,3.25,.7-6.46,2.42-22.29c.16-1.49-.61-2.71-1.29-3.46-1.32-1.47-3.36-2.42-5.2-2.42-.96,0-1.79,.25-2.47,.75l-7.99,5.85-10.05,7.36-5.25,3.84v-17.83l.97-.97,28.02-28.02c1.01-1.01,1.56-2.35,1.56-3.77s-.55-2.77-1.56-3.77c-1.01-1.01-2.35-1.56-3.77-1.56s-2.77,.56-3.77,1.56l-15.81,15.81-5.63,5.63v-37.99c0-2.94-2.39-5.34-5.34-5.34s-5.34,2.39-5.34,5.34v37.99l-5.63-5.63-15.81-15.81c-1.01-1.01-2.35-1.56-3.77-1.56s-2.77,.56-3.77,1.56c-1.01,1.01-1.56,2.35-1.56,3.77s.56,2.77,1.56,3.77l28.02,28.02,.97,.97v17.83l-5.25-3.84-9.78-7.16-8.27-6.05c-.68-.5-1.51-.75-2.47-.75-1.84,0-3.89,.95-5.2,2.41-.68,.75-1.45,1.97-1.29,3.46l2.42,22.29,.7,6.46-5.63-3.25-8.63-4.98-1.18-.68-.35-1.32-10.26-38.28c-.62-2.33-2.74-3.96-5.15-3.96-.46,0-.93,.06-1.39,.18-1.38,.37-2.53,1.25-3.24,2.49-.71,1.23-.9,2.67-.53,4.05l5.79,21.6,2.06,7.69-6.9-3.98-26-15.01c-.81-.47-1.73-.72-2.66-.72-1.9,0-3.68,1.02-4.63,2.67-1.47,2.55-.59,5.82,1.95,7.29l26,15.01,6.9,3.98-7.69,2.06-19.11,5.12c4.55,2.62,9.23,5.05,14.01,7.29l24.54-6.57,1.32-.35,1.18,.68,8.64,4.99,5.63,3.25-5.95,2.62-3.54,1.56-7.4,3.26c6.25,1.93,12.63,3.55,19.13,4.84l5.91-2.6,3.36-1.48,1.53-.67,1.45,.84,9.69,5.59,2.65,1.53c4.12,.27,8.28,.41,12.46,.41,4.58,0,9.11-.17,13.61-.49l2.52-1.45,9.69-5.59,1.45-.84,1.53,.67,1.72,.76,7.23,3.19c6.47-1.3,12.82-2.94,19.04-4.88l-10.53-4.64-5.95-2.62,5.63-3.25,8.64-4.99,1.18-.68,1.32,.35,23.9,6.4c4.77-2.25,9.42-4.69,13.96-7.31l-18.42-4.93-7.69-2.06,6.9-3.98,26-15.01c2.55-1.47,3.42-4.74,1.95-7.29-.95-1.65-2.72-2.67-4.63-2.67Zm-103.88,52.99l-4.95-2.86-9.69-5.59-1.45-.84-.18-1.66-1.5-13.77-.81-7.44,6.04,4.42,7.55,5.53,3.63,2.66,1.35,.99v18.56Zm28.43-24.72l-1.5,13.77-.18,1.66-1.45,.84-9.69,5.59-4.95,2.86v-18.56l1.35-.99,10.54-7.71,.65-.47,6.04-4.42-.81,7.44Z"/>
    </g>
    <path class="cls-4" d="M37.06,299.41c27.09,71.94,96.54,123.12,177.96,123.12s150.87-51.18,177.96-123.12H37.06Z"/>
    <g class="cls-2">
        <path class="cls-5" d="M218.06,203.71h184.91c-13.69-90.4-91.04-159.89-184.91-161.37V203.71Z"/>
        <path class="cls-9" d="M218.06,203.71h184.91c-13.69-90.4-91.04-159.89-184.91-161.37V203.71Z"/>
        <path class="cls-1" d="M375.54,150.39l-2.54-3.78c19.1-80.41,28.99-120.9,28.99-120.9l-11.46-24.01c-1.44-1.99-2.69-2.12-4.02-1.01l-7.22,16.15-46.02,23.49c-.51-1.05-1.68-1.53-2.64-1.05l-54.35,26.84c-1.91-2.23-4.91-1.78-7.51-.16l-36.4,39.19c-8.69,6.66-14.6,15.27-17.74,25.82,0,0-2.71,11.01-8.1,32.91,5.06,.07-2.71,31.06,2.32,31.69,3.11,.39,6.27,.92,9.35,1.69,.21-.52,.41-1.02,.63-1.55,4.72-11.46,21.61-52.07,28.5-60.96,12.4-16.01,78.69-56.64,117.37-80.98-6.31,67.59-9.56,110.94-10.72,127.33-3.41,.55-6.37,3.26-9.76,4.8-28.32-10.09-42.34-15.06-42.34-15.06-16.19-17.79-14.55-17.6-22.26-19.87-2.16-14.36-9.06-11.51-8.56-8.63,8.15,46.15,11.79,64.33,11.79,64.33,4.79,17.55,28.77,26.89,53.85,9.01l22.21-15.35c5.87-3,8.89-10.2,4.94-15.15,.78-3.28,1.54-6.51,2.29-9.69l15.27-12.21,.1-.07c.96-.74,1.19-2.15,.52-3.15l-4.43-6.59-2.07-3.08Zm-94.62-71.34l-1.8-5.11,54.89-27.11c.98-.48,1.38-1.78,.89-2.88l-.03-.06,41.9-21.39-4.03,9.01-91.82,47.54Zm86.86,89.59c1.32-5.58,2.6-10.98,3.85-16.24l5.75,8.56-9.6,7.68Z"/>
    </g>
    <path class="cls-4" d="M218.06,203.71h184.91c-13.69-90.4-91.04-159.89-184.91-161.37V203.71Z"/>
    <path class="cls-9" d="M376.76,22.49l-41.9,21.39,.03,.06c.49,1.1,.09,2.4-.89,2.88l-54.89,27.11,1.8,5.11,91.82-47.54,4.03-9.01Z"/>
    <path class="cls-9" d="M367.78,168.64l9.6-7.68-5.75-8.56c-1.25,5.25-2.53,10.66-3.85,16.24Z"/>
    <path class="cls-1" d="M328.33,222.76v.29s.01,39.99,.01,39.99l-15.09-36.75c-6.21,.71-11.91-.18-16.72-2.29v64.67l-1.65,4.94h16.16l-1.65-4.94v-42.62l18.94,47.56h14.72l-1.65-4.94v-66.44l1.65-5.04-5.42,.02s-.59,.41-1.31,.93c-1.48,1.06-5.43,3.34-8,4.63Z"/>
    <path class="cls-1" d="M378.12,154.61c-.04-.06-.12-.1-.15-.17-.04-.09-.1-.17-.14-.26l-.63-.93,.03-.13c-.66-1.03-1.45-1.99-2.06-3.05l-.03,.12-2.52-3.76c18.97-79.86,28.79-120.06,28.79-120.06l-11.38-23.84c-1.43-1.98-2.67-2.1-3.99-1.01l-7.17,16.04-45.7,23.33c-.51-1.05-1.67-1.52-2.62-1.05l-53.97,26.65c-1.9-2.21-4.87-1.77-7.46-.16l-34.46,37.1c6.69,8.46,11.4,18.15,16.31,27.74,17.79-17.71,77.55-54.37,113.42-76.95-6.26,67.13-9.49,110.17-10.65,126.46-3.38,.55-6.33,3.24-9.7,4.77-28.13-10.02-42.05-14.95-42.05-14.95-16.08-17.67-14.45-17.48-22.11-19.74-2.14-14.26-9-11.43-8.5-8.57,8.09,45.83,11.7,63.88,11.7,63.88,1.95,7.13,7.08,12.89,14.18,16,4.77,2.09,10.43,2.98,16.6,2.28,4.75-.54,9.79-2.04,14.98-4.65,2.55-1.28,5.13-2.83,7.73-4.68l.43-.3,21.63-14.95c5.83-2.98,8.82-10.13,4.9-15.04,.77-3.26,1.53-6.47,2.28-9.63l15.16-12.13,.1-.07c.95-.73,1.18-2.14,.52-3.13l-3.48-5.18Zm-96.94-75.27l-1.79-5.08,54.51-26.92c.97-.48,1.37-1.77,.88-2.86l-.03-.06,41.61-21.24-4,8.95-91.18,47.22Zm86.26,88.97c1.31-5.54,2.58-10.91,3.82-16.12l5.71,8.5-9.54,7.63Z"/>
    <path class="cls-1" d="M159.93,201.59v10.24s-23.76,.05-23.76,.05l-1.82-3.89,18.63-7.68,6.95,1.28Z"/>
    <path class="cls-1" d="M118.51,425.14C48.99,389.46,1.32,317.02,1.32,233.65c0-30.47,6.38-59.47,17.86-85.76-.38-.23-.76-.46-1.14-.69C6.45,173.7,0,202.93,0,233.65c0,83.86,47.94,156.73,117.86,192.64,.22-.38,.44-.76,.65-1.15Z"/>
    <path class="cls-1" d="M427.82,187.29c-.43,.09-.86,.18-1.29,.28,3.26,14.85,4.97,30.27,4.97,46.09,0,87.36-52.35,162.71-127.32,196.35,.21,.39,.42,.78,.63,1.17,75.39-33.87,128.01-109.66,128.01-197.52,0-15.91-1.73-31.42-5-46.36Z"/>
    <path class="cls-1" d="M216.41,18.56c16.71,0,32.98,1.92,48.61,5.54,.12-.42,.23-.85,.35-1.27-15.74-3.65-32.12-5.59-48.95-5.59-19.18,0-37.78,2.51-55.5,7.22,.17,.41,.34,.82,.49,1.24,17.56-4.65,36-7.14,55.01-7.14Z"/>
</svg>