<?xml version="1.0" standalone="no"?>
<!DOCTYPE svg PUBLIC "-//W3C//DTD SVG 20010904//EN"
 "http://www.w3.org/TR/2001/REC-SVG-20010904/DTD/svg10.dtd">
<svg version="1.0" xmlns="http://www.w3.org/2000/svg"
 width="802.000000pt" height="802.000000pt" viewBox="0 0 802.000000 802.000000"
 preserveAspectRatio="xMidYMid meet">
<metadata>
Created by potrace 1.14, written by Peter Selinger 2001-2017
</metadata>
<g transform="translate(0.000000,802.000000) scale(0.100000,-0.100000)"
fill="#000000" stroke="none">
<path d="M3807 7634 c-1 -1 -47 -5 -102 -8 -55 -4 -113 -8 -130 -11 -16 -2
-50 -6 -75 -10 -25 -3 -71 -10 -102 -15 -32 -6 -70 -12 -85 -15 -15 -2 -49 -9
-77 -15 -28 -6 -60 -12 -71 -14 -62 -13 -268 -71 -362 -102 -759 -256 -1413
-736 -1886 -1386 -316 -434 -561 -996 -652 -1495 -2 -16 -11 -62 -19 -103 -8
-41 -13 -77 -10 -79 2 -2 524 -4 1159 -4 635 0 1155 -1 1155 -3 0 -1 -32 -15
-71 -30 -38 -15 -72 -31 -75 -35 -2 -4 3 -24 13 -43 l17 -36 238 0 238 0 1 33
c1 17 1 50 0 73 l-1 41 517 1 c285 0 524 1 531 1 9 1 12 334 12 1631 l0 1629
-80 -1 c-45 -1 -82 -3 -83 -4z"/>
<path d="M4055 6017 c0 -894 3 -1629 7 -1633 5 -4 845 -8 1869 -8 l1861 -1 -6
40 c-4 22 -9 55 -11 74 -3 19 -15 77 -26 130 -186 866 -669 1643 -1364 2195
-33 26 -67 53 -76 60 -41 33 -243 169 -329 221 -411 249 -949 443 -1385 499
-22 3 -49 8 -60 10 -11 2 -49 7 -85 11 -36 3 -81 8 -100 10 -19 2 -94 7 -165
10 l-130 6 0 -1624z"/>
<path d="M274 4160 c-9 -3 -15 -9 -14 -13 1 -4 -1 -24 -4 -45 -3 -20 -9 -54
-12 -76 -3 -21 -7 -48 -10 -59 -11 -61 -14 -97 -7 -97 4 0 31 6 58 13 62 16
238 16 257 -1 13 -10 15 -100 13 -609 -1 -440 -4 -605 -13 -626 -22 -53 -24
-52 148 -52 88 0 160 3 160 6 0 4 -7 26 -15 49 -13 36 -15 133 -15 630 0 547
1 588 18 602 13 12 42 14 128 13 61 -1 117 -6 123 -10 18 -11 74 -18 68 -8 -3
4 -8 26 -11 48 -16 106 -38 230 -41 234 -6 6 -814 6 -831 1z"/>
<path d="M1283 4162 c-27 -4 -27 0 -8 -51 23 -65 23 -1396 0 -1460 -8 -24 -15
-46 -15 -50 0 -3 72 -6 160 -6 112 0 160 3 160 11 0 6 -7 28 -15 47 -20 49
-22 553 -2 581 11 14 30 17 115 18 68 1 106 -3 117 -12 22 -18 22 -527 0 -590
-8 -23 -15 -45 -15 -49 0 -5 318 -7 327 -2 2 0 -5 22 -15 49 -16 43 -18 98
-16 737 1 607 3 695 17 733 9 23 12 42 7 43 -46 3 -312 1 -315 -3 -3 -3 2 -24
10 -48 22 -62 22 -562 0 -580 -19 -16 -193 -17 -222 -1 -23 12 -23 12 -23 270
0 211 3 266 16 305 9 26 14 50 11 53 -6 6 -258 10 -294 5z"/>
<path d="M2250 4160 c-4 -3 -2 -23 6 -45 23 -62 22 -1398 0 -1470 -9 -27 -16
-50 -16 -50 0 0 175 0 389 0 214 0 391 2 394 5 6 6 49 282 44 286 -1 2 -27 -3
-57 -11 -39 -11 -112 -15 -251 -15 -174 0 -198 2 -212 18 -13 14 -16 45 -15
179 0 115 4 168 13 180 10 13 29 17 81 18 38 1 80 -3 94 -8 14 -5 37 -13 51
-17 l26 -8 0 164 c0 90 -4 164 -7 164 -4 0 -27 -7 -50 -15 -23 -8 -73 -15
-110 -15 -99 0 -99 0 -98 197 1 159 1 161 24 174 37 19 405 15 463 -5 24 -9
46 -16 48 -16 3 0 2 19 -1 43 -4 23 -9 58 -12 77 -2 19 -7 46 -10 58 -3 13 -7
43 -11 65 -3 23 -7 44 -9 46 -6 6 -764 7 -774 1z"/>
<path d="M3210 4154 c0 -6 7 -31 15 -54 22 -63 22 -1372 0 -1446 -8 -27 -15
-51 -15 -54 0 -3 72 -5 160 -5 88 0 160 0 160 1 0 0 -7 25 -16 55 -13 42 -16
102 -17 282 0 208 1 229 18 241 26 18 90 19 105 1 17 -21 113 -419 114 -475 0
-25 -3 -59 -7 -75 l-8 -30 161 0 c113 0 160 3 160 11 0 6 -7 28 -15 47 -8 20
-29 93 -45 164 -62 256 -72 298 -76 322 -3 14 -8 29 -11 34 -3 5 25 40 62 77
l68 68 1 356 1 357 -67 66 -67 66 -340 1 c-246 1 -341 -2 -341 -10z m533 -273
c15 -12 17 -40 17 -212 0 -186 -1 -199 -19 -209 -28 -14 -214 -13 -229 2 -19
19 -17 396 2 417 20 22 204 23 229 2z"/>
<path d="M4200 4159 c0 -4 7 -26 15 -49 23 -64 22 -1396 0 -1460 -8 -24 -13
-46 -9 -49 8 -8 314 -8 314 0 0 4 -7 26 -15 49 -13 36 -15 144 -15 724 0 602
2 688 16 730 9 26 14 50 11 53 -8 7 -317 9 -317 2z"/>
<path d="M4703 4162 c-21 -3 -21 -3 -4 -55 15 -47 17 -112 15 -737 -1 -609 -3
-690 -18 -729 -9 -24 -16 -44 -16 -45 0 -4 779 0 784 4 3 3 10 37 16 75 6 39
13 81 15 95 3 14 8 47 11 73 l6 48 -28 -7 c-16 -4 -39 -11 -52 -15 -13 -5
-112 -9 -220 -9 -153 0 -202 3 -218 14 -18 13 -20 25 -19 185 0 118 4 174 13
183 16 16 138 17 186 1 67 -22 64 -29 63 147 0 88 -4 160 -7 160 -4 0 -27 -7
-50 -15 -59 -21 -173 -20 -191 1 -16 20 -21 306 -5 342 11 25 -1 24 256 24
121 0 179 -4 218 -15 47 -14 52 -14 52 0 0 20 -41 267 -46 272 -4 4 -730 7
-761 3z"/>
<path d="M7404 4112 c-14 -18 -22 -42 -22 -73 -2 -64 33 -96 101 -94 62 2 85
24 90 88 3 40 -1 52 -22 75 -21 23 -35 28 -76 29 -43 2 -53 -2 -71 -25z"/>
<path d="M6428 4102 c-18 -13 -59 -37 -90 -55 -40 -21 -58 -38 -59 -52 0 -11
-1 -188 -1 -394 0 -206 -4 -368 -8 -360 -5 8 -61 142 -125 299 -64 157 -125
303 -135 325 -9 22 -20 49 -24 60 -5 18 -14 20 -93 18 -79 -1 -178 16 -234 41
-14 6 -16 -52 -16 -641 -1 -571 -3 -653 -17 -692 -9 -24 -14 -47 -10 -50 3 -3
75 -6 160 -6 110 0 154 3 154 11 0 6 -7 28 -15 47 -13 31 -15 105 -15 459 l1
423 188 -470 189 -470 146 0 c103 0 146 3 146 11 0 6 -6 29 -14 50 -20 57 -20
1351 0 1408 21 60 20 62 -40 62 -40 -1 -64 -7 -88 -24z"/>
<path d="M6985 3861 c-11 -5 -54 -9 -95 -9 -72 0 -75 -1 -106 -36 l-31 -35 -1
-134 -1 -134 32 -36 32 -37 346 0 345 0 33 34 33 34 0 118 c0 66 -1 128 -2
139 0 11 -14 35 -31 53 -29 32 -33 34 -112 36 -45 1 -90 6 -99 10 -15 7 -17
-1 -16 -77 l0 -85 59 5 c57 6 59 5 60 -18 0 -13 1 -39 2 -57 1 -19 -4 -39 -11
-44 -17 -15 -509 -15 -523 -1 -6 6 -9 34 -7 64 l3 54 58 -1 57 -1 0 83 c0 46
-1 84 -2 83 -2 0 -12 -4 -23 -8z"/>
<path d="M6751 3265 c0 -87 0 -87 25 -81 20 5 278 9 419 6 34 0 13 -11 -150
-76 -104 -41 -203 -81 -220 -88 -16 -8 -40 -17 -52 -20 -20 -7 -22 -13 -21
-86 l1 -78 24 9 c32 12 734 12 767 0 l25 -10 3 85 3 85 -40 -7 c-39 -7 -424
-9 -430 -2 -3 3 378 157 448 181 17 6 20 28 18 121 -1 46 -4 51 -28 38 -22
-12 -749 -10 -775 2 -16 7 -17 0 -17 -79z"/>
<path d="M6753 2675 c0 -76 1 -85 16 -78 22 10 728 13 769 3 31 -8 32 -7 33
23 2 56 -1 130 -4 134 -3 2 -15 0 -28 -5 -29 -10 -735 -9 -765 1 -21 7 -21 5
-21 -78z"/>
<path d="M436 2476 c29 -98 203 -461 284 -596 217 -358 444 -633 748 -908 530
-479 1209 -804 1922 -922 130 -21 156 -24 305 -37 171 -15 637 -8 755 11 14 2
50 7 80 11 30 4 64 9 75 11 11 2 38 7 60 10 86 12 317 67 445 105 516 154
1041 446 1430 793 58 52 284 278 335 336 274 309 516 698 674 1084 23 54 41
104 41 111 0 9 -769 12 -3580 12 l-3580 0 6 -21z"/>
</g>
</svg>
