<svg  width="253" height="223"
     viewBox="0 0 253 223" fill="none" xmlns="http://www.w3.org/2000/svg">
    <path opacity="0.847682"
          d="M5.24251 2C3.45175 2 2 3.45175 2 5.24251V160.881C2 162.672 3.45175 164.123 5.24251 164.123H63.6068C65.3976 164.123 66.8493 162.672 66.8493 160.881V125.451C65.8662 125.053 65.0399 124.345 64.4966 123.434L62.8753 120.625L60.0666 122.247C57.7407 123.589 54.7667 122.793 53.4234 120.467L42.0748 100.81C40.7321 98.4838 41.5289 95.5098 43.8544 94.1665L46.6631 92.5452L45.0419 89.7366C43.6991 87.4106 44.4958 84.4366 46.8213 83.0933L143.7 27.1607C144.332 26.7949 145.039 26.5763 145.767 26.5212C147.63 26.3815 149.409 27.322 150.343 28.9404L151.964 31.749L154.773 30.1278C157.099 28.7851 160.073 29.5817 161.416 31.9072L164.123 36.5969V5.24251C164.123 3.45175 162.672 2 160.881 2H5.24251Z"
          stroke="#ABE85E" stroke-width="4" stroke-miterlimit="2" stroke-linecap="round" />
    <path opacity="0.847682"
          d="M46.8208 83.0926L143.699 27.1601C144.252 26.8407 144.863 26.6334 145.496 26.5501C146.129 26.4667 146.773 26.5088 147.389 26.6742C148.006 26.8395 148.585 27.1247 149.091 27.5135C149.598 27.9023 150.023 28.3871 150.343 28.9402L169.797 62.6369C170.442 63.754 170.617 65.0817 170.283 66.3276C169.95 67.5736 169.134 68.636 168.017 69.2809L71.1392 125.213C70.5861 125.533 69.9755 125.74 69.3423 125.823C68.709 125.907 68.0656 125.865 67.4487 125.699C66.8317 125.534 66.2534 125.249 65.7467 124.86C65.24 124.471 64.8147 123.986 64.4954 123.433L45.0406 89.7364C44.3956 88.6193 44.2209 87.2918 44.5547 86.0458C44.8886 84.7999 45.7036 83.7376 46.8208 83.0926Z"
          stroke="#ABE85E" stroke-width="4" stroke-miterlimit="2" stroke-linecap="round" />
    <path opacity="0.847682"
          d="M151.964 31.7483L154.772 30.1271C155.325 29.8078 155.936 29.6005 156.569 29.5171C157.202 29.4337 157.846 29.4759 158.463 29.6412C159.08 29.8065 159.658 30.0917 160.165 30.4805C160.671 30.8694 161.097 31.3542 161.416 31.9074L172.765 51.5638C173.084 52.1169 173.291 52.7275 173.375 53.3607C173.458 53.994 173.416 54.6374 173.25 55.2543C173.085 55.8713 172.8 56.4497 172.411 56.9565C172.022 57.4632 171.537 57.8883 170.984 58.2076L168.176 59.8288L151.964 31.7483Z"
          stroke="#ABE85E" stroke-width="4" stroke-miterlimit="2" stroke-linecap="round" />
    <path opacity="0.847682"
          d="M46.6619 92.5444L43.8538 94.1657C42.7367 94.8107 41.9216 95.8729 41.5877 97.1189C41.2539 98.3649 41.4287 99.6925 42.0737 100.81L53.4223 120.466C54.0672 121.583 55.1295 122.398 56.3755 122.732C57.6215 123.066 58.9489 122.891 60.0661 122.246L62.8742 120.625L46.6619 92.5444Z"
          stroke="#ABE85E" stroke-width="4" stroke-miterlimit="2" stroke-linecap="round" />
    <path
            d="M164.659 37.5235L169.522 45.9476L176.542 41.8946C178.869 40.5515 181.843 41.3486 183.186 43.6748L192.103 59.1191C193.446 61.4454 192.649 64.42 190.323 65.7631L132.758 98.9983C125.779 103.028 123.388 111.951 127.417 118.93L140.387 141.395L150.215 135.72L138.056 114.66C136.713 112.334 137.51 109.359 139.836 108.016L198.805 73.97C205.009 70.3885 207.134 62.4562 203.553 56.2529L192.204 36.5965C188.622 30.3931 180.69 28.2676 174.487 31.8492L164.659 37.5235Z"
            stroke="#ABE85E" stroke-width="4" />
    <path opacity="0.847682"
          d="M140.387 141.395L150.215 135.72L178.161 175.781C178.751 176.626 179.158 177.585 179.358 178.596C179.558 179.607 179.545 180.649 179.321 181.655C179.097 182.661 178.667 183.61 178.057 184.441C177.447 185.272 176.671 185.967 175.778 186.482L171.566 188.914C170.674 189.43 169.684 189.754 168.659 189.867C167.635 189.979 166.598 189.878 165.614 189.569C164.631 189.26 163.723 188.75 162.947 188.071C162.171 187.392 161.545 186.56 161.108 185.627L140.387 141.395Z"
          stroke="#ABE85E" stroke-width="4" stroke-miterlimit="2" stroke-linecap="round" />
</svg>