<svg xmlns="http://www.w3.org/2000/svg" width="219" height="156" viewBox="0 0 219 156" fill="none">
    <path opacity="0.847682"
          d="M210.917 49.0222H70.0856C68.674 49.0222 67.2814 49.3467 66.0153 49.9706C64.7491 50.5945 63.6434 51.5012 62.7835 52.6206C61.9235 53.7399 61.3324 55.0418 61.0558 56.4259C60.7791 57.8101 60.8244 59.2393 61.1881 60.6032L84.9757 149.807C85.2518 150.842 85.8165 151.777 86.604 152.504C87.3915 153.23 88.3694 153.717 89.4235 153.909C90.4776 154.101 91.5645 153.988 92.5573 153.586C93.55 153.183 94.4078 152.506 95.0305 151.635L118.553 118.703C120.707 115.687 123.551 113.228 126.847 111.532C130.144 109.835 133.798 108.95 137.505 108.95H158.48C162.244 108.95 165.966 108.146 169.394 106.59C172.822 105.034 175.879 102.764 178.358 99.9304L215.01 58.0423C215.698 57.256 216.145 56.2881 216.297 55.2545C216.45 54.2208 216.301 53.1651 215.869 52.2136C215.438 51.2621 214.741 50.4551 213.863 49.8892C212.984 49.3232 211.962 49.0222 210.917 49.0222Z"
          fill="#161A15" stroke="#ABE85E" stroke-width="4" stroke-miterlimit="2"
          stroke-linecap="round"/>
    <path opacity="0.847682"
          d="M129.364 6.33018L80.5729 49.0223H200.429L151.638 6.33018C148.555 3.63251 144.598 2.14551 140.501 2.14551C136.404 2.14551 132.447 3.63251 129.364 6.33018Z"
          fill="#161A15" stroke="#ABE85E" stroke-width="4" stroke-miterlimit="2"
          stroke-linecap="round"/>
    <path opacity="0.847682"
          d="M170.465 153.896C153.916 153.896 140.501 140.481 140.501 123.932C140.501 107.384 153.916 93.9683 170.465 93.9683C187.014 93.9683 200.429 107.384 200.429 123.932C200.429 140.481 187.014 153.896 170.465 153.896Z"
          fill="#161A15" stroke="#ABE85E" stroke-width="4" stroke-miterlimit="2"
          stroke-linecap="round"/>
    <path opacity="0.847682"
          d="M170.465 138.914C162.191 138.914 155.483 132.207 155.483 123.932C155.483 115.658 162.191 108.95 170.465 108.95C178.739 108.95 185.447 115.658 185.447 123.932C185.447 132.207 178.739 138.914 170.465 138.914Z"
          fill="#161A15" stroke="#ABE85E" stroke-width="4" stroke-miterlimit="2"
          stroke-linecap="round"/>
    <path d="M46.4503 20.8833L84.451 89.2979L172.253 118.562C175.223 119.55 176.828 122.76 175.836 125.728C174.844 128.693 171.635 130.293 168.67 129.3L76.6872 98.6432L39.7813 32.2083H5.66251C2.53522 32.2083 0 29.6731 0 26.5458C0 23.4185 2.53522 20.8833 5.66251 20.8833H46.4503Z"
          fill="#161A15" stroke="#ABE85E" stroke-width="4" stroke-linecap="round"/>
</svg>