<?xml version="1.0" encoding="UTF-8"?>
<svg id="Layer_1" data-name="Layer 1" xmlns="http://www.w3.org/2000/svg" viewBox="0 0 367.61 93.57">
    <defs>
        <style>
            .cls-1 {
            fill: #231f20;
            }
        </style>
    </defs>
    <path class="cls-1" d="M46.73,29.69l-5.56-1.44h-9.78l-1.44,1.44v58.67l1.65,4.94H15.23l1.65-4.94V29.69l-1.54-1.44H5.35l-5.35,1.44L2.37,15.08H44.26l2.47,14.62Z"/>
    <path class="cls-1" d="M51.98,15.08h16.16l-1.65,5.04v25.63l1.54,1.54h9.98l1.54-1.54V20.12l-1.54-5.04h16.37l-1.65,5.04V88.37l1.65,4.94h-16.37l1.54-4.94v-26.46l-1.54-1.54h-9.98l-1.54,1.54v26.46l1.65,4.94h-16.16l1.65-4.94V20.12l-1.65-5.04Z"/>
    <path class="cls-1" d="M149.36,93.31l1.65-4.94V20.12l-1.65-5.04h34.17l6.59,6.38V57.07l-6.59,6.59,5.66,24.4,2.06,5.25h-16.16l1.13-4.84-5.56-23.57-1.03-1.23h-4.22l-1.54,1.54v23.16l1.65,4.94h-16.16Zm26.15-42.62l1.54-1.44V29.69l-1.54-1.44h-10.09l-1.54,1.44v19.56l1.54,1.44h10.09Z"/>
    <path class="cls-1" d="M215.13,93.31h-16.16l1.65-4.94V20.12l-1.65-5.04h16.16l-1.65,5.04V88.37l1.65,4.94Z"/>
    <path class="cls-1" d="M223.16,93.31l1.65-5.04V20.02l-1.65-4.94h39.12l2.37,14.41-5.35-1.54h-20.07l-1.54,1.54v16.16l1.54,1.54h6.59l5.04-1.65v16.37l-5.04-1.65h-6.59l-1.54,1.44v16.88l1.54,1.54h20.07l5.35-1.54-2.37,14.72h-39.12Z"/>
    <path class="cls-1" d="M101.08,93.31l1.65-5.04V20.02l-1.65-4.94h39.12l2.37,14.41-5.35-1.54h-20.07l-1.54,1.54v16.16l1.54,1.54h6.59l5.04-1.65v16.37l-5.04-1.65h-6.59l-1.54,1.44v16.88l1.54,1.54h20.07l5.35-1.54-2.37,14.72h-39.12Z"/>
    <g>
        <path class="cls-1" d="M367.61,85.11v8.46l-2.59-.86h-35.72l-2.64,.86v-8.46l2.64,.86h35.72l2.59-.86Z"/>
        <path class="cls-1" d="M367.61,72.45v8.46l-2.59-.86h-35.72l-2.64,.86v-7.6l24.95-9.91h-22.31l-2.64,.86v-8.57l2.64,.86h35.72l2.59-.86v7.7l-24.89,9.91h22.31l2.59-.86Z"/>
        <path class="cls-1" d="M364.22,51.06h-34.21l-3.34-3.45v-13.63l3.34-3.4h6.9l2.59-.86v8.57l-2.59-.92h-2.69l-.81,.75v5.33l.81,.81h25.7l.81-.81v-5.33l-.81-.75h-2.64l-2.59,.92v-8.57l2.59,.86h6.95l3.39,3.4v13.63l-3.39,3.45Z"/>
        <path class="cls-1" d="M358.13,18.73l2.37-2.37h4.74l2.37,2.37v4.74l-2.37,2.37h-4.74l-2.37-2.37v-4.74Z"/>
    </g>
    <path d="M302.94,22.45v.29s.01,39.99,.01,39.99l-15.09-36.75c-6.21,.71-11.91-.18-16.72-2.29V88.37l-1.65,4.94h16.16l-1.65-4.94V45.75l18.94,47.56h14.72l-1.65-4.94V21.93l1.65-5.04-5.42,.02s-.59,.41-1.31,.93c-1.48,1.06-5.43,3.34-8,4.63Z"/>
    <path class="cls-1" d="M134.54,1.28V11.52s-23.76,.05-23.76,.05l-1.82-3.89L127.59,0l6.95,1.28Z"/>
</svg>